<svg xmlns="http://www.w3.org/2000/svg" height="40" viewBox="0 -960 960 960" width="28"><path d="M146.666-186.666v-466.668 466.668-19.5 19.5Zm0 66.666q-27 0-46.833-19.833T80-186.666v-466.668q0-27 19.833-46.833T146.666-720H320v-93.334q0-26.333 19.833-46.499Q359.666-880 386.666-880h186.668q27 0 46.833 20.167Q640-839.667 640-813.334V-720h173.334q27 0 46.833 19.833T880-653.334v207.001q-15.333-11.666-31.667-20.833-16.333-9.167-34.999-16.833v-169.335H146.666v466.668h317.001q3.667 17.666 9.667 34.333 6 16.666 14.333 32.333H146.666Zm240-600h186.668v-93.334H386.666V-720ZM720-44.667q-80.333 0-137.833-57.5T524.667-240q0-80.333 57.5-137.833T720-435.333q80.333 0 137.833 57.5T915.333-240q0 80.333-57.5 137.833T720-44.667ZM738-244v-120h-41.333v133.184l94.666 89.483 27.334-27.334L738-244Z"/></svg>