<svg xmlns="http://www.w3.org/2000/svg" xmlns:xlink="http://www.w3.org/1999/xlink" version="1.1" x="0px" y="0px" viewBox="0 0 77 96.25" style="enable-background:new 0 0 77 77;" xml:space="preserve"><g><path d="M68.1849823,23.6862793c-51.4204254-0.0101738-25.9520798-0.0051346-33.31567-0.0065918   c-1.8691406,0-3.3906269,1.5253906-3.3906269,3.4003906v17.0533447l-0.2998047-0.0474854l-2.7734375-8.3183594   c-0.8320313-2.3935547-3.0957031-4.0361328-5.6318359-4.0878906c-0.0292969,0.0019531-0.0380859,0.0019531-0.0546875,0.0058594   c-0.0842285-0.0046387-0.1750488-0.0043945-0.263916-0.0046387l-1.3356934-0.8720703v-0.1147461   c2.3891602-0.4812012,4.1494141-2.5494385,4.2099609-5.0183105c0.0402889-1.8905678,0.0794792-2.779213,0.0754395-3.6011963   c0.413763-0.6839561,0.2109051-1.2147999,0.2578125-2.2836914c1.5717773-0.8631592,1.5732422-2.3417969,1.5732422-2.3417969   c-1.1501465,0.3099365-1.3901367-0.7399902-1.3901367-0.7399902c0.8400879-0.1800537,0.8500977-1.6300049,0.8500977-1.6300049   c-2.3604679-0.0932665-3.979002-2.7928438-6.5600586-2.9100342c-5.0800781-0.25-4.6101074,2.2399902-4.6101074,2.2399902   c-1.6398926-0.3699951-2.6899414,0.0500488-3.329834,2.0400391c-1.1330566,3.5753174,0.208252,6.1132813,0.9580078,7.1702881   c-0.0200195,0.0445557-0.0534668,0.0805664-0.0705566,0.126709c-0.5227709,1.3121548,0.3591452,2.8020782,1.7958984,2.9868164   v3.6844482l-0.6616211,1.2629395c-2.0868578,0.0305958-2.5358114-0.0467205-3.121582,0.1009521   c-1.2773438,0.1210938-3.9335938,1.3427734-4.5878906,3.7431641c-0.5473633,2.027832-0.0625,23.270752-0.0305176,24.6564941   c-0.003418,0.0153809-0.0178223,0.0253906-0.0183105,0.041748l-0.0800781,2.9375   c0,1.0600586,0.6418457,1.987793,1.6103516,2.376709v3.8527832c0,0.1376953,0.1123047,0.25,0.25,0.25   c3.3632402,0,13.6964073,0,17.0595703,0c0.1376953,0,0.25-0.1123047,0.25-0.25v-4.5717773   c0.1503906,0.0192871,0.3117676,0.0317383,0.5,0.0317383c0.1376953,0,0.25-0.1123047,0.25-0.25V50.734375   c2.1763229,0.0610199,3.0169697,0.0833969,5.1796875,0.1816406V66.25c0,1.8691406,1.5214863,3.3896484,3.3906269,3.3896484   h27.8095703c1.8749962,0,3.4003868-1.5205078,3.4003868-3.3896484V35.8681641h2.7470703   c1.0615234,0,1.9248047-0.8632813,1.9248047-1.9248047v-7.6669922   C70.7511444,24.8535156,69.6009979,23.6955566,68.1849823,23.6862793z M22.9484119,34.1884766l1.0566406,0.6679688   l-2.3740234,4.0888672l0.9335938-6.5664063l0.7734375,0.5703125l-0.4775391,0.9121094   C22.7999744,33.9775391,22.8390369,34.1191406,22.9484119,34.1884766z M15.7657948,35.1533203l-2.2802734-1.4423828   l0.892334-1.3378906l4.8198242,6.8430176l-4.0100098-2.5021973l0.6640625-1.2304688   C15.9142323,35.3671875,15.8771229,35.2236328,15.7657948,35.1533203z M20.6193104,30.7929688v0.1011963   c-0.1626949,0.2445507-1.6120777,2.4231644-1.5205078,2.2855225c-0.1171036-0.0889206-3.9562101-3.0040302-3.7197266-2.8244629   v-2.3737793C16.3261528,29.8164043,18.4444084,31.0369053,20.6193104,30.7929688z M22.1068592,32.050293   c-0.1113071,0.7381783-0.4579296,3.0369606-0.435791,2.8901367l-2.1662598-1.4682617l1.4475098-2.1757813L22.1068592,32.050293z    M15.2130604,30.8574219l3.6040039,2.7369385l-1.4506836,2.083374c-0.0719452-0.1003532-2.8778353-4.0142059-2.703125-3.7705078   L15.2130604,30.8574219z M20.3422108,61.3398438c0.2719727-0.7767334,0.3881836-1.588623,0.3269043-2.4140625L20.3697987,40.107666   c0-0.0018311-0.0004883-0.003418-0.0002441-0.0053711l-0.0002441-0.0163574   c-0.0004883-0.0314941-0.0168457-0.0594482-0.0290527-0.0883789c-0.0661297-0.1641808,0.4120235,0.5811539-2.6911621-3.8520508   l1.5739746-2.2600098l2.3920898,1.6213379c-0.0226917,0.1594696-0.6995163,4.9158554-0.6657715,4.6787109   c0.0902233,3.9097099,0.5845032,17.3812981,1.5053711,21.1542969   C22.2802181,61.3398438,20.2187309,61.3398438,20.3422108,61.3398438z M24.8292713,25.6640625   c-0.0721035,2.9301167-2.7616272,5.1548519-5.7092285,4.5664063c-2.3443832-0.4668007-3.9254503-2.6087456-3.8308105-4.7949219   l0.0349121-1.510498c0.2744141-0.0861816,0.4760742-0.3349609,0.4914551-0.6359863l0.0300293-2.0600586   c1.4299316-0.6699219,1.0900879-1.9699707,1.0900879-1.9699707c3.7019043,1.2111816,6.0686035,1.3154297,7.5876465,0.9550781   c0.2661133,0.6223145,0.4035645,1.3001709,0.3859863,1.9997559C24.9068203,22.3145294,24.8266411,25.7647228,24.8292713,25.6640625   z M13.5499744,23.9257813c0.2080078-0.5615234,0.7070313-0.9716797,1.2880859-1.0791016   c-0.0619822,2.9778728-0.079999,2.9949055-0.0537109,3.3730469C13.7619581,25.991684,13.1670666,24.8879604,13.5499744,23.9257813z    M6.9904041,35.6552734c0.5830078-2.1376953,3.03125-3.2705078,4.1875-3.3818359   c0.5518808-0.1338615,0.8200712-0.0641556,2.7260742-0.0915527l-0.9760742,1.4645996   c-0.0765343,0.1148033-0.0458488,0.2730141,0.0742188,0.3496094l2.2988281,1.4550781l-0.6640625,1.2314453   c-0.0625,0.1162109-0.0244141,0.2617188,0.0869141,0.3310547l5.1474609,3.2128906l0.2988281,18.7216797   c0.1986942,2.6808929-1.5189266,4.9428711-3.880127,5.6564941c-1.3559408,0.4095688-2.1214743,0.1611252-5.3474121,0.1745605   c0.4967766-0.6038895,0.5493507-1.2438965,0.6269531-1.7626953l0.0400391,0.0722656   c0.2629519,0.4868698,0.9052067,0.6136665,1.3310547,0.2705078c0.0009766-0.0007324,0.0014648-0.0019531,0.0024414-0.0026855   c0-0.0001221,0.0004883-0.0001221,0.0004883-0.0002441c0.3005953-0.2333565,0.4650631-0.7304764,0.2441406-1.1279297   c-1.3436804-2.4257774-1.139595-2.1263618-1.2436523-2.2338867C12.4896812,40.5632515,13.0730343,35.6649361,12.0734119,35.875   c-0.1347656,0.0292969-0.2197266,0.1630859-0.1904297,0.2978516c0.5272331,2.3935471,0.1680584,2.1998177-0.4370117,23.7416992   L6.972826,59.9758301C6.7911854,52.1018066,6.566576,37.2246094,6.9904041,35.6552734z M6.879076,63.1269531l0.0732422-2.6503906   l4.6699219-0.0644531l1.1279297,2.0585938c0.0888672,0.1601563,0.0390625,0.375-0.1181641,0.4951172   c-0.1797819,0.1469193-0.4621506,0.1064491-0.5839844-0.1162109l-0.390625-0.7099609   c-0.1176853-0.215004-0.4277449-0.1483727-0.4658203,0.0800781l-0.171875,1.0722656   c-0.077179,1.0962906-1.0023832,1.9728394-2.1591797,1.9375C7.7610264,65.1816864,6.879076,64.2936172,6.879076,63.1269531z    M26.3136463,50.2324219l-0.0117188-7.9716797c0-0.1376953-0.1123047-0.25-0.25-0.25s-0.25,0.1123047-0.25,0.25   c-0.0002995,2.2578812,0.0010853-8.1792831-0.0029297,22.0820313c-2.3010788-0.1471634-2.8601151-2.4463043-3.1621094-4.765625   c-0.8527832-6.4395752-1.1665039-18.5524902-1.1889648-19.3215332l3.1098633-5.3562012   c0.0683594-0.1162109,0.03125-0.265625-0.0820313-0.3369141l-1.0654297-0.6728516l0.4697266-0.8984375   c0.0566406-0.109375,0.0263672-0.2441406-0.0732422-0.3173828l-0.6125488-0.4521484   c2.1489258,0.2126465,4.0227051,1.6508789,4.7375488,3.7070313c2.9767704,8.7604675,2.7314148,8.5821075,3.0185547,8.6279297   l7.6787128,1.2167969v5.0380859C34.7977104,50.5424309,29.7217693,50.3234177,26.3136463,50.2324219z M62.6788826,69.1396484   H34.8693123c-1.59375,0-2.8906269-1.2958984-2.8906269-2.8896484V50.9389648   c7.3900204,0.3461647,10.6412868,0.6870117,11.1074238,0.6870117c0.9375,0,1.7919922-0.5654297,2.1591797-1.4394531   c0.0151367-0.0323486,0.0180664-0.0732422,0.0317383-0.1065674h17.7119141V48.539917H45.325367   c-0.0095215-0.0272217-0.0100098-0.0568848-0.0205078-0.0838623c-0.3369141-0.9423828-1.2314453-1.5761719-2.2255859-1.5761719   H41.896656c0.1111717-0.0980339,0.8427734-0.3258476,0.8427734-1.1396484c0-0.0941162-0.0319824-0.1721191-0.0517578-0.2567139   c1.4113655,0.1146278,2.5467491,0.0558662,4.015625-0.4180908c1.5071602-0.5596008,1.1321373-0.4388428,2.4853516-1.2548828   c0.0903397-0.1036491,4.1201172-2.594101,4.1201172-7.8808594c0-5.2988281-4.3105469-9.609375-9.609375-9.609375   s-9.6103516,4.3105469-9.6103516,9.609375c0,3.9146919,2.4447746,7.5695305,6.1811523,8.9748535l-1.4226074,0.3967285   l-6.8688984-1.088623V27.0800781c0-1.5996094,1.2968769-2.9003906,2.8906269-2.9003906h31.7744102   c-0.0407715,0.0300293-0.0717773,0.0706787-0.1108398,0.1029053c-0.6471558,0.5317745-0.956543,1.3239994-0.956543,1.9937744   c0.0003052,4.1701527-0.001091-14.9359064,0.0029297,39.9736328C65.5792694,67.84375,64.2784882,69.1396484,62.6788826,69.1396484z    M39.9493904,39.7597656c-0.1376953,0-0.25,0.1123047-0.25,0.25v4.0993652   c-0.428093-0.2077293-0.8756943-0.4538765-1.2607422-0.7369385v-4.7022705c0-0.8320313,0.6777344-1.5097656,1.5107422-1.5097656   h0.5024414c3.116127,4.7016296,2.9090996,4.6435547,3.1625977,4.6435547c0.256218,0,0.098259-0.0215111,3.1655273-4.6435547   h0.4995117c0.8466797,0,1.5097656,0.6630859,1.5097656,1.5097656v4.8111572   c-0.3697357,0.2671471-0.8453865,0.5192909-1.2597656,0.7139893v-4.1853027c0-0.1376953-0.1123047-0.25-0.25-0.25   s-0.25,0.1123047-0.25,0.25v4.4072266c-0.1177559,0.0263062-2.0344543,0.9095955-4.6015625,0.5357666   c-0.0307617-0.0345459-0.0695801-0.0582275-0.1040039-0.0882568c-0.0954628-0.0840645-0.099659-0.0974655-0.2722168-0.175293   c-0.1191826-0.0545349-0.0882072-0.0570564-0.3032227-0.0883789c-0.1022491-0.0146065-0.2157059-0.0490532-0.458252,0.0192871   l-0.1694336,0.0472412c-0.3151894-0.0927505-0.6364555-0.2065544-0.9213867-0.3236084v-4.3339844   C40.1993904,39.8720703,40.0870857,39.7597656,39.9493904,39.7597656z M34.5890388,35.9296875   c0-5.0224609,4.0869141-9.109375,9.1103516-9.109375c5.0224609,0,9.109375,4.0869141,9.109375,9.109375   c0,2.8221436-1.3115234,5.4550781-3.5195313,7.1674805v-4.4272461c0-1.1083984-0.9013672-2.0097656-2.0097656-2.0097656   c-0.1004028,0-1.5391731,0-1.4384766,0l-0.6220703-0.4227295v-0.4749756   c0.796875-0.5025635,1.3015137-1.3518066,1.3522949-2.2900391c0.4389572,0.121933,0.7878418-0.2596741,0.7878418-0.7224121   c0-0.4422874-0.3373146-0.8389416-0.7700195-0.7233887v-0.0871582c0-0.0013428-0.0004883-0.0024414-0.0004883-0.0039063   c0.2028809-0.5026855,0.4660645-1.2800293,0.362793-1.7260742c-0.1567383-0.6950684-0.0554199-1.4360352-0.3684082-1.8686523   c-0.317627-0.4326172-1.1413574-0.0461426-1.1413574-0.0461426s0.2807617-1.1782227-1.0170898-1.1182861   c-1.293457,0.0551758-2.2138672,0.2071533-2.2138672,0.2071533c-1.6477051,0.5246582-1.2565918,1.9974365-1.2565918,1.9974365   c-0.951416,0.7930908-0.3579102,2.2357178-0.1745605,2.6219482v0.0500488   c-0.4314079-0.1960926-0.8608398,0.1896896-0.8608398,0.6970215c0,0.5279884,0.4441032,0.8980865,0.8759766,0.6906738   c0.0375977,0.8959961,0.4829102,1.7077637,1.2143555,2.2253418v0.5712891l-0.6225586,0.4228516   c-1.1228867,0.0014114-1.1788139,0.0000267-1.4370117,0c-1.1083984,0-2.0107422,0.9013672-2.0107422,2.0097656v4.2980957   C35.8395271,41.2346191,34.5890388,38.6486816,34.5890388,35.9296875z M41.3400154,37.1601563   c0.9827538,1.2743607,0.9520035,1.4296875,1.1787109,1.4296875c0.1300659,0,0.179554-0.0846519,0.3869629-0.2199707   l0.3032227,0.3500977l-0.1582031,1.5119629l-2.0026855-3.0717773H41.3400154z M41.2794685,32.6809082h0.0014648   c0.4666634-1.6484261,0.1691513-1.083353,0.2456055-1.7836914c0.0883789-0.182373,0.199707-0.3494873,0.3293457-0.5028076   c1.736084,0.6436768,3.1320801,0.2342529,3.6711426,0.0148926c0.0463867,0.0559082,0.0969238,0.1080322,0.1381836,0.1679688   c-0.1655273,0.6455078,0.2734375,1.256958,0.2734375,1.256958s0.0827637,0.5751953,0.0827637,0.6120605   c0,0.0106201,0.029541,0.0142822,0.067627,0.0152588v0.8851318c-0.0198708,1.9428787-2.1983528,2.9771843-3.6962891,1.9921875   c-0.6972656-0.4423828-1.1132813-1.1972656-1.1132813-2.0185547V32.6809082z M43.6886482,36.2197266   c0.0546875,0,0.1074219-0.0174561,0.1618652-0.0205078c0.2973175-0.0166512,0.4795723-0.0573006,0.6804199-0.1186523   c0.0620117-0.0187988,0.1271973-0.0270996,0.1879883-0.050293v0.2265625   c-0.1004181,0.0877609-1.2007599,1.0494308-1.1003418,0.9616699c-0.1007385-0.0873947-1.2103577-1.0500412-1.1096191-0.9626465   v-0.2841797C42.7909966,36.0991745,43.2935715,36.2197266,43.6886482,36.2197266z M44.0206795,37.53125l0.9677734-0.8457031   l0.4189453,0.2841797l-0.7519531,1.0214844L44.0206795,37.53125z M42.240406,36.6845703l0.9763184,0.8469238l-0.642334,0.4626465   l-0.7539063-1.0244141L42.240406,36.6845703z M44.1783943,40.2324219l-0.1594238-1.5523682l0.2854004-0.3248291   c0.2180481,0.1449127,0.2765121,0.2346191,0.4047852,0.2346191c0.0761719,0,0.1523438-0.0351563,0.2011719-0.1015625   l0.9775391-1.328125h0.2956543L44.1783943,40.2324219z M41.1886482,45.1699219l0.2402344-0.0693359   c0.2373047-0.0683594,0.515625,0.0273438,0.6767578,0.2480469c0.2184296,0.2593842,0.1794548,0.7162781-0.1835938,0.9355469   l-1.0703125,0.6298828c-0.2183952,0.1301537-0.1266861,0.4658203,0.1269531,0.4658203h2.1005859   c1.1435089,0,2.0053673,1.0428276,1.8525391,2.1230469c-0.0273438,0.1757813-0.0732422,0.3300781-0.1435547,0.4804688   c-0.3115234,0.7392578-1.0488281,1.1865234-1.8408203,1.1376953l-3.8085938-0.2832031v-5.0976563   C39.2402458,45.7120247,41.3209724,45.13311,41.1886482,45.1699219z M70.2511444,33.9433594   c0,0.7851563-0.6396484,1.4248047-1.4248047,1.4248047h-2.7470703v-9.0878906c0-0.5784912,0.2338867-1.1030273,0.6118164-1.4833984   c1.3078461-1.3057346,3.5600586-0.3885841,3.5600586,1.4794922V33.9433594z"/><path d="M42.651783,32.9067383c0.3023453,0,0.2985191-0.6674805,0-0.6674805c-0.1259766,0-0.229248,0.1506348-0.229248,0.3349609   S42.5258064,32.9067383,42.651783,32.9067383z"/><path d="M44.7242928,32.9067383c0.3023453,0,0.2985191-0.6674805,0-0.6674805c-0.1259766,0-0.229248,0.1506348-0.229248,0.3349609   S44.5983162,32.9067383,44.7242928,32.9067383z"/><path d="M43.6871834,34.9775391c0.5031281,0,0.946846-0.4062614,0.9265137-0.9705811h-1.8532715   C42.7400627,34.5720291,43.1846962,34.9775391,43.6871834,34.9775391z"/><rect x="55.0966072" y="27.8209229" width="7.7700195" height="3.3804932"/><rect x="55.0966072" y="33.401123" width="7.892334" height="1.534668"/><rect x="55.0966072" y="36.5860596" width="7.892334" height="1.53479"/><rect x="55.0966072" y="39.7709961" width="7.892334" height="1.534668"/><rect x="34.530201" y="53.0039063" width="28.4587402" height="1.534668"/><rect x="34.530201" y="57.4641113" width="28.4587402" height="1.534668"/><rect x="34.530201" y="61.9244385" width="28.4587402" height="1.53479"/><rect x="55.0966072" y="42.9559326" width="2.5756836" height="1.534668"/><path d="M23.6825428,23.0415039c-0.2565918-0.0062256-0.4755859,0.3305664-0.486084,0.7578125   c-0.0102539,0.4216309,0.1923828,0.7685547,0.4487305,0.7747803c0.262207,0.0063477,0.4812012-0.3303223,0.4914551-0.7519531   C24.1471424,23.3947754,23.9445057,23.0478516,23.6825428,23.0415039z"/><path d="M20.349535,22.9604492c-0.2563477-0.0061035-0.4755859,0.3305664-0.4858398,0.7578125   c-0.0102539,0.4216309,0.1921387,0.7685547,0.4484863,0.7747803s0.4755859-0.3304443,0.4858398-0.7520752   C20.8082752,23.3137207,20.6058826,22.9667969,20.349535,22.9604492z"/><path d="M20.5262928,26.8405762c-0.0607433,0.9617672,0.6830273,1.6835995,1.5500488,1.7047119   c0.8823242,0.0213623,1.6149902-0.6763916,1.6364746-1.5587158c0.0004883-0.0234375-0.0048828-0.0454102-0.005127-0.0686035   L20.5262928,26.8405762z"/><path d="M33.7286873,19.9794922c0.1252556,0-0.0489807,0.0538177,3.5664063-2.0400391h3.6435547   c2.9169922,0,5.2900391-2.3681641,5.2900391-5.2792969c0-2.921875-2.3730469-5.2998047-5.2900391-5.2998047h-7.109375   c-2.9218769,0-5.2998066,2.3779297-5.2998066,5.2998047c0,2.78125,2.1982422,5.0908203,4.9492207,5.2597656v1.8095703   C33.4786873,19.865921,33.5886154,19.9794922,33.7286873,19.9794922z M29.0294666,12.6601563   c0-2.6464844,2.1533203-4.7998047,4.7998066-4.7998047h7.109375c2.6416016,0,4.7900391,2.1533203,4.7900391,4.7998047   c0,2.6357422-2.1484375,4.7792969-4.7900391,4.7792969c-3.871563,0.0451183-3.8592262-0.1040421-3.9746094,0.1142578   l-2.9853516,1.7402344v-1.6142578c0-0.1367188-0.109375-0.2480469-0.2460938-0.25   C31.1388416,17.3916016,29.0294666,15.2519531,29.0294666,12.6601563z"/><rect x="32.5197029" y="10.5262451" width="10.4238281" height="1.3262939"/><rect x="32.5197029" y="13.1123047" width="4.2561035" height="1.3261719"/></g><text x="0" y="92" fill="#000000" font-size="5px" font-weight="bold" font-family="'Helvetica Neue', Helvetica, Arial-Unicode, Arial, Sans-serif">Created by Brickclay</text><text x="0" y="97" fill="#000000" font-size="5px" font-weight="bold" font-family="'Helvetica Neue', Helvetica, Arial-Unicode, Arial, Sans-serif">from the Noun Project</text></svg>